# xmcd CD database file generated by OrangeCD 5.2
#
# Track frame offsets:
#	182
#	16400
#	32090
#	48942
#	62992
#	82390
#	106567
#	121970
#	134630
#	150245
#	164117
#	187435
#	210502
#	222617
#	235562
#	255595
#
# Disc length: 3602 seconds
#
# Revision: 3
# Processed by: cddbd v1.5.1PL0 Copyright (c) Steve Scherf et al.
# Submitted via: OrangeCD 5.2
#
DISCID=e80e1010
DTITLE=Various Artist - New Country December 1994
DYEAR=1994
DGENRE=Country
TTITLE0=Tracy Lawrence - I See It Now
TTITLE1=George Ducas - Hello Cruel World
TTITLE2=Radney Foster - The Running Kind
TTITLE3=Elvis Costello - A Good Year for the Roses
TTITLE4=Alison Krauss - When You Say Nothing At All
TTITLE5=Jerry Douglas - Birdland
TTITLE6=David Gates - Love Is Always Seventeen
TTITLE7=J.D. Crowe and The New South - Waiting for You
TTITLE8=Rhett Akins - What They're Talkin' About
TTITLE9=Archer/Park - We Got a Lot in Common
TTITLE10=Blue Rodeo - Bad Timing
TTITLE11=Jed Zeppelin - Workin' Man Blues
TTITLE12=Mac McAnally - Down the Road
TTITLE13=Alison Krauss and The Cox Family /Walk Over God's Heaven
TTITLE14=David Grisman/Jerry Garcia - The Teddy Bear's Picnic
TTITLE15=The Volebeats - The First Time Next Time
EXTD=
EXTT0=
EXTT1=
EXTT2=
EXTT3=
EXTT4=
EXTT5=
EXTT6=
EXTT7=
EXTT8=
EXTT9=
EXTT10=
EXTT11=Featuring Diamond Rio, Lee Roy Parnell and Steve Wariner
EXTT12=
EXTT13=
EXTT14=
EXTT15=
PLAYORDER=
